<?xml version="1.0" encoding="UTF-8" standalone="no"?>
<svg
   xmlns:osb="http://www.openswatchbook.org/uri/2009/osb"
   xmlns:dc="http://purl.org/dc/elements/1.1/"
   xmlns:cc="http://creativecommons.org/ns#"
   xmlns:rdf="http://www.w3.org/1999/02/22-rdf-syntax-ns#"
   xmlns:svg="http://www.w3.org/2000/svg"
   xmlns="http://www.w3.org/2000/svg"
   xmlns:sodipodi="http://sodipodi.sourceforge.net/DTD/sodipodi-0.dtd"
   xmlns:inkscape="http://www.inkscape.org/namespaces/inkscape"
   width="2500"
   height="2500"
   viewBox="0 -50 50 50"
   version="1.1"
   id="svg1094"
   sodipodi:docname="network_source_sink_mask.svg"
   inkscape:version="1.0.2 (1.0.2+r75+1)"
   inkscape:export-filename="/home/fh/google_drive/work/projects/niot/examples/y_net_hand_drawing/nref3/network.png"
   inkscape:export-xdpi="15.99"
   inkscape:export-ydpi="15.99">
  <metadata
     id="metadata1098">
    <rdf:RDF>
      <cc:Work
         rdf:about="">
        <dc:format>image/svg+xml</dc:format>
        <dc:type
           rdf:resource="http://purl.org/dc/dcmitype/StillImage" />
        <dc:title />
      </cc:Work>
    </rdf:RDF>
  </metadata>
  <sodipodi:namedview
     pagecolor="#ffffff"
     bordercolor="#666666"
     borderopacity="1"
     objecttolerance="10"
     gridtolerance="10"
     guidetolerance="10"
     inkscape:pageopacity="0"
     inkscape:pageshadow="2"
     inkscape:window-width="1853"
     inkscape:window-height="1018"
     id="namedview1096"
     showgrid="false"
     inkscape:zoom="0.11638978"
     inkscape:cx="888.42278"
     inkscape:cy="2404.3434"
     inkscape:window-x="67"
     inkscape:window-y="1114"
     inkscape:window-maximized="1"
     inkscape:current-layer="svg1094"
     inkscape:document-rotation="0" />
  <defs
     id="defs1082">
    <linearGradient
       id="linearGradient4841"
       osb:paint="solid">
      <stop
         style="stop-color:#ffffff;stop-opacity:1;"
         offset="0"
         id="stop4839" />
    </linearGradient>
    <linearGradient
       id="linearGradient4003"
       osb:paint="solid">
      <stop
         style="stop-color:#ffffff;stop-opacity:1;"
         offset="0"
         id="stop4001" />
    </linearGradient>
    <inkscape:path-effect
       effect="bspline"
       id="path-effect1118"
       is_visible="true"
       lpeversion="1"
       weight="33.333333"
       steps="2"
       helper_size="0"
       apply_no_weight="true"
       apply_with_weight="true"
       only_selected="false" />
    <inkscape:path-effect
       effect="bspline"
       id="path-effect1114"
       is_visible="true"
       lpeversion="1"
       weight="33.333333"
       steps="2"
       helper_size="0"
       apply_no_weight="true"
       apply_with_weight="true"
       only_selected="false" />
    <inkscape:path-effect
       effect="bspline"
       id="path-effect1110"
       is_visible="true"
       lpeversion="1"
       weight="33.333333"
       steps="2"
       helper_size="0"
       apply_no_weight="true"
       apply_with_weight="true"
       only_selected="false" />
  </defs>
  <rect
     x="0"
     y="-50"
     width="50"
     height="50"
     stroke-width="0"
     fill="#ffffff"
     id="rect1084"
     style="display:inline"
     inkscape:export-xdpi="2"
     inkscape:export-ydpi="2" />
  <ellipse
     cx="26.188395"
     cy="-20.34828"
     fill="#000000"
     id="circle1086"
     style="display:inline;stroke-width:0.133165;stroke-miterlimit:4;stroke-dasharray:none"
     rx="1.409808"
     ry="1.3420553" />
  <path
     style="display:inline;fill:none;stroke:#000000;stroke-width:0.895355;stroke-linecap:butt;stroke-linejoin:miter;stroke-miterlimit:4;stroke-dasharray:none;stroke-opacity:1"
     d="m 0,-50 c 0.17776266,2.278945 0.35550959,4.557688 0.44437528,6.150142 0.0888657,1.592454 0.0888657,2.498585 0.0888657,2.951533 0,0.452948 2.46916563,3.171339 2.88082153,3.277976 0.411656,0.106637 1.2347111,0.319843 1.888292,0.426414 0.6535809,0.10657 1.1377307,0.10657 1.6219005,0.1599 0.4841697,0.05333 0.9683194,0.159932 1.5250811,0.239867 0.5567618,0.07993 1.186156,0.133237 1.6460899,0.159878 0.459934,0.02664 0.750424,0.02664 1.040933,0.133336 0.290509,0.106696 0.580998,0.319903 0.871494,0.506439 0.290496,0.186537 0.580988,0.346442 0.726102,0.426322 0.145114,0.07988 2.759522,2.958177 3.195382,3.27808 0.43586,0.319903 1.307329,0.959525 2.106161,1.652469 0.798833,0.692944 1.525058,1.439167 1.912299,1.918904 0.38724,0.479738 0.435656,0.692946 0.484149,0.799415 0.04849,0.10647 0.09691,0.10647 0.121008,0.13324 0.0241,0.02677 0.0241,0.08007 0.435735,0.533131 0.411637,0.453063 1.234692,1.30589 1.718839,1.732189 0.484147,0.426299 0.629391,0.426299 0.701906,0.453069 0.07251,0.02677 0.07251,0.08007 0.09683,0.106602 0.02431,0.02653 0.07273,0.02653 0.121104,0.07996 0.04837,0.05342 0.09679,0.160006 0.144224,0.213154 0.04744,0.05315 0.09382,0.05315 0.17972,0.1446 0.0859,0.09145 0.211367,0.2741 0.293487,0.365294 0.08212,0.0912 0.120869,0.0912 0.190319,0.221778 0.06945,0.130583 0.169718,0.391478 0.219798,0.572718 0.05008,0.181239 0.05008,0.282868 0.05008,0.317514 0,0.03465 0,0.0023 0.02547,0.01591 0.02547,0.01363 0.0762,0.07321 0.10147,0.142652 0.02527,0.06944 0.02527,0.14873 0.255803,0.543952 0.230536,0.395223 0.691147,1.105892 1.151293,1.815844"
     id="path1108"
     inkscape:path-effect="#path-effect1110"
     inkscape:original-d="m 0,-50 c 0.17778201,2.278943 0.35552892,4.557686 0.53324097,6.836231 2.1332e-4,0.906365 2.1332e-4,1.812496 0,2.718392 l 2.46916563,2.718391 c 0.8232685,0.213441 1.6463236,0.426648 2.4691655,0.639621 0.4843633,2.34e-4 0.9685131,2.34e-4 1.4524497,0 0.4843633,0.106839 0.968513,0.213442 1.4524497,0.31981 0.6296079,0.05354 1.2590023,0.10684 1.8881835,0.159906 0.290705,2.35e-4 0.581195,2.35e-4 0.871474,0 0.290701,0.213442 0.581191,0.426649 0.871466,0.639621 0.290704,0.160141 0.581196,0.320046 0.871474,0.479715 l 2.614408,2.878297 c 0.871683,0.639857 1.743152,1.279479 2.614408,1.918866 0.726438,0.746457 1.452663,1.492681 2.178675,2.238669 0.04863,0.213444 0.09705,0.426651 0.145248,0.639626 0.04863,2.34e-4 0.09705,2.34e-4 0.145243,0 2.13e-4,0.05354 2.13e-4,0.106838 0,0.159909 0.82327,0.85306 1.646324,1.705888 2.469165,2.55848 0.145459,2.35e-4 0.290703,2.35e-4 0.435733,0 2.14e-4,0.05354 2.14e-4,0.10684 0,0.159904 0.04863,2.36e-4 0.09705,2.36e-4 0.14525,0 0.04863,0.106805 0.09705,0.213387 0.145242,0.319726 0.04659,2.34e-4 0.09297,2.34e-4 0.139129,0 0.125678,0.182881 0.251145,0.365527 0.376398,0.547941 0.03895,2.35e-4 0.0777,2.35e-4 0.116229,0 0.100476,0.261126 0.200746,0.52202 0.300799,0.782676 2.13e-4,0.101864 2.13e-4,0.203493 0,0.304886 2.13e-4,-0.0321 2.13e-4,-0.06446 0,-0.09703 0.05095,0.05982 0.101681,0.119403 0.152207,0.178752 2.14e-4,0.07954 2.14e-4,0.158828 0,0.23789 0.461077,0.71138 0.921688,1.422049 1.38183,2.132004"
     sodipodi:nodetypes="ccccccccccccccccccccccccccccccc" />
  <ellipse
     cx="0.063770011"
     cy="-49.702358"
     fill="#0000ff"
     id="circle1090"
     style="display:none;stroke-width:0.179293"
     rx="0.53617895"
     ry="0.59953535" />
  <path
     style="display:inline;fill:none;stroke:#000000;stroke-width:2.10337;stroke-linecap:butt;stroke-linejoin:miter;stroke-miterlimit:4;stroke-dasharray:none;stroke-opacity:1"
     d="m 50,-50 c -0.902354,1.284344 -1.804728,2.568716 -2.903068,3.438234 -1.09834,0.869518 -2.392764,1.324205 -3.247102,1.65259 -0.854339,0.328384 -1.268553,0.530466 -2.407678,1.364067 -1.139124,0.833601 -3.003093,2.298701 -3.986892,3.132348 -0.9838,0.833647 -1.087352,1.035726 -1.372123,1.51566 -0.28477,0.479934 -0.750763,1.237744 -1.087309,2.248217 -0.336546,1.010473 -0.543652,2.273489 -0.673086,3.309175 -0.129434,1.035687 -0.181212,1.844018 -0.207095,2.500793 -0.02588,0.656776 -0.02588,1.161984 -0.05113,1.414475 -0.02524,0.25249 -0.07598,0.25249 -0.152711,0.327264 -0.07673,0.07477 -0.179233,0.224277 -0.56704,1.031605 -0.387807,0.807328 -1.060908,2.272427 -1.501009,3.181783 -0.440101,0.909356 -0.647208,1.263 -0.750742,1.490423 -0.103534,0.227422 -0.103534,0.32846 -0.155334,0.505226 -0.0518,0.176766 -0.155353,0.429367 -0.310659,0.656652 -0.155305,0.227285 -0.362415,0.429369 -0.465972,0.581046 -0.103556,0.151676 -0.103556,0.252718 -0.155332,0.353647 -0.05178,0.100928 -0.155326,0.201967 -0.207106,0.302485 -0.05178,0.100519 -0.05178,0.200294 -0.07431,0.250068 -0.02253,0.04977 -0.06783,0.04977 -0.652438,0.07756 -0.584609,0.02778 -1.708584,0.08337 -2.832834,0.138963"
     id="path1112"
     inkscape:path-effect="#path-effect1114"
     inkscape:original-d="m 50,-50 c -0.902328,1.284363 -1.804702,2.568734 -2.707119,3.853113 -1.294194,0.454909 -2.588618,0.909596 -3.883269,1.36406 -0.413989,0.202305 -0.828204,0.404386 -1.242649,0.606246 -1.863739,1.465322 -3.727709,2.930421 -5.591904,4.395298 -0.103331,0.202306 -0.206879,0.404388 -0.310662,0.606246 -0.465764,0.758033 -0.931759,1.515842 -1.397979,2.273429 -0.206877,1.263239 -0.413985,2.526255 -0.621318,3.789047 -0.05155,0.808554 -0.103331,1.616885 -0.155335,2.424992 2.28e-4,0.505429 2.28e-4,1.010637 0,1.515618 -0.05049,2.23e-4 -0.101222,2.23e-4 -0.152163,0 -0.102266,0.149727 -0.204767,0.299229 -0.307494,0.448511 -0.672873,1.465321 -1.345973,2.930421 -2.019304,4.395296 -0.206877,0.353868 -0.413984,0.707512 -0.62132,1.060935 2.28e-4,0.101265 2.28e-4,0.202303 0,0.303118 -0.103331,0.252827 -0.206879,0.50543 -0.310662,0.757811 -0.206879,0.202305 -0.413989,0.40439 -0.621325,0.606249 2.29e-4,0.101265 2.29e-4,0.202307 0,0.303125 -0.103331,0.101265 -0.206879,0.202307 -0.310662,0.303125 2.28e-4,0.09999 2.28e-4,0.199765 0,0.299313 -0.04506,2.23e-4 -0.09036,2.23e-4 -0.135869,0 -1.123706,0.0556 -2.247682,0.111171 -3.371933,0.166748"
     sodipodi:nodetypes="cccccccccccccccccccccc" />
  <ellipse
     cx="49.706696"
     cy="-49.468578"
     fill="#0000ff"
     id="circle1092"
     style="display:none;stroke-width:0.306658"
     rx="1.1844349"
     ry="1.190937" />
  <path
     style="display:inline;fill:none;stroke:#000000;stroke-width:2.93229;stroke-linecap:butt;stroke-linejoin:round;stroke-miterlimit:4;stroke-dasharray:none;stroke-opacity:1"
     d="m 26.239033,-20.52772 c -0.280747,1.300454 -0.561434,2.600631 -0.812619,3.643957 -0.251185,1.043327 -0.472875,1.829897 -0.694568,2.532182 -0.221693,0.702286 -0.443382,1.320308 -0.554199,1.782726 -0.110816,0.462417 -0.110816,0.769141 -0.150583,1.742132 -0.03977,0.9729905 -0.11929,2.6122567 -0.159045,4.5458326 -0.03976,1.9335758 -0.03976,4.1614488 -0.03976,6.38907179"
     id="path1116"
     inkscape:path-effect="#path-effect1118"
     inkscape:original-d="m 26.239033,-20.52772 c -0.280723,1.300459 -0.56141,2.600636 -0.842063,3.900536 -0.221495,0.786817 -0.443185,1.573387 -0.665071,2.359709 -0.221495,0.61827 -0.443185,1.236292 -0.665068,1.854067 1.95e-4,0.30697 1.95e-4,0.613694 0,0.920169 -0.07933,1.6395164 -0.158851,3.2787827 -0.238568,4.9178039 1.95e-4,2.2281205 1.95e-4,4.4559935 0,6.68361649"
     inkscape:label="path1116"
     sodipodi:nodetypes="ccccccc" />
  <ellipse
     cx="23.860268"
     cy="-0.19397204"
     fill="#ff0000"
     id="circle1088"
     style="display:inline;stroke-width:0.276619"
     rx="1.4146836"
     ry="1.352199" />
  <rect
     style="display:none;opacity:1;fill:#000000;fill-opacity:1;fill-rule:nonzero;stroke:#000000;stroke-width:0;stroke-linejoin:round;stroke-miterlimit:4;stroke-dasharray:none;stroke-opacity:1"
     id="rect1138"
     width="31.664654"
     height="32.417179"
     x="10.35155"
     y="-40.504524"
     inkscape:export-xdpi="7.9871998"
     inkscape:export-ydpi="7.9871998" />
  <rect
     style="display:none;opacity:1;mix-blend-mode:normal;fill:#ffffff;fill-opacity:1;fill-rule:nonzero;stroke:#000000;stroke-width:0;stroke-linejoin:round;stroke-miterlimit:4;stroke-dasharray:none"
     id="rect5227"
     width="17.425116"
     height="15.744052"
     x="-0.63485122"
     y="-46.20351"
     inkscape:export-xdpi="7.9871998"
     inkscape:export-ydpi="7.9871998" />
  <rect
     style="display:none;opacity:1;mix-blend-mode:normal;fill:#ffffff;fill-opacity:1;fill-rule:nonzero;stroke:#000000;stroke-width:0;stroke-linejoin:round;stroke-miterlimit:4;stroke-dasharray:none"
     id="rect5229"
     width="15.883706"
     height="16.619629"
     x="28.703119"
     y="-39.121815"
     inkscape:export-xdpi="7.9871998"
     inkscape:export-ydpi="7.9871998" />
  <rect
     style="display:none;opacity:1;mix-blend-mode:normal;fill:#ffffff;fill-opacity:1;fill-rule:nonzero;stroke:#000000;stroke-width:0;stroke-linejoin:round;stroke-miterlimit:4;stroke-dasharray:none"
     id="rect5231"
     width="17.893618"
     height="15.97586"
     x="15.368037"
     y="-23.687023"
     inkscape:export-xdpi="7.9871998"
     inkscape:export-ydpi="7.9871998" />
  <rect
     style="display:inline;fill:#0000ff;fill-opacity:1;stroke:#0000ff;stroke-width:0.4;stroke-linecap:square;stroke-linejoin:miter;stroke-opacity:1"
     id="rect848"
     width="0.46191117"
     height="0.58853316"
     x="0.13386945"
     y="-49.889256"
     inkscape:transform-center-x="-1.1634728"
     inkscape:transform-center-y="0.49928679" />
  <rect
     style="display:inline;fill:#0000ff;fill-opacity:1;stroke:#0000ff;stroke-width:0.494681;stroke-linecap:square;stroke-linejoin:miter;stroke-opacity:1"
     id="rect868"
     width="0.95023376"
     height="1.7533414"
     x="49.161095"
     y="-49.863605" />
  <rect
     style="display:inline;fill:#ff0000;fill-opacity:1;stroke:#ff0000;stroke-width:0.359034;stroke-linecap:square;stroke-linejoin:miter;stroke-opacity:1"
     id="rect870"
     width="2.4125679"
     height="1.5650855"
     x="22.462378"
     y="-0.8527872" />
</svg>
